<svg width="605" height="141" viewBox="0 0 605 141" fill="none" xmlns="http://www.w3.org/2000/svg">
<path d="M603.5 64.3323C603.5 61.6341 600.883 59.7098 598.308 60.5141L592.775 62.242C591.774 62.5543 590.937 63.2468 590.442 64.1704L579.186 85.1681C579.015 85.4879 578.888 85.8295 578.809 86.1835L566.642 140.5L555.317 80.8238C554.83 78.2577 552.055 76.8391 549.69 77.9478L544.212 80.5156C542.891 81.1349 541.338 80.9858 540.159 80.1266L534.531 76.0259C532.252 74.3649 529.015 75.5213 528.304 78.2506L520.549 108.032C519.578 111.762 514.411 112.095 512.969 108.521L505.213 89.302L492.927 42.0299L485.678 17.5271C484.468 13.4368 478.551 13.8282 477.891 18.0423L468.355 78.8661L459.854 109.627C458.778 113.521 453.266 113.547 452.153 109.664L445.358 85.9555C444.593 83.2858 441.406 82.1892 439.16 83.8225L433.381 88.0252C432.216 88.8718 430.687 89.0275 429.376 88.433L419.211 83.8232L409.857 78.4344C408.165 77.4593 406.016 77.8493 404.774 79.3568L394.639 91.6568L388.328 101.5C386.307 104.651 381.452 103.548 380.991 99.833L372.309 29.8295C371.781 25.5734 365.833 25.0195 364.529 29.1049L357.782 50.2302L347.444 107.711C346.783 111.388 341.888 112.232 340.034 108.988L336.46 102.733C334.976 100.135 331.268 100.027 329.635 102.535L321.873 114.457C321.268 115.387 320.303 116.023 319.21 116.215L312.257 117.429C310.21 117.787 308.231 116.518 307.701 114.51L300.453 87.0444C299.39 83.0136 293.64 83.0947 292.691 87.1539L284.298 123.035C284.146 123.685 283.834 124.286 283.39 124.784L276.645 132.358C274.542 134.72 270.66 133.822 269.807 130.777L261.397 100.759C260.559 97.7678 256.78 96.8316 254.642 99.0855L248.803 105.244C247.817 106.283 246.349 106.716 244.957 106.378L236.91 104.425C235.662 104.123 234.635 103.239 234.15 102.049L226.859 84.178C225.44 80.7003 220.444 80.9188 219.334 84.5071L215.619 96.518C214.358 100.597 208.439 100.127 207.838 95.8998L201.979 54.7421C201.328 50.1679 194.727 50.1572 194.061 54.7293L187.879 97.1762C187.292 101.2 181.773 101.884 180.223 98.1251L176.406 88.8739C175.175 85.8904 171.099 85.518 169.348 88.2291L161.738 100.011C161.389 100.551 160.915 100.999 160.356 101.317L153.19 105.392C150.987 106.645 148.189 105.559 147.408 103.148L137.924 73.867C137.222 71.6985 134.852 70.5544 132.717 71.3531L125.471 74.0637C124.739 74.3375 124.104 74.8197 123.643 75.4507L112.392 90.852C112.174 91.151 111.998 91.4788 111.87 91.8262L104.364 112.158C102.993 115.873 97.6341 115.549 96.7199 111.696L89.2758 80.3189C88.5267 77.1612 84.5271 76.1631 82.3822 78.5984L76.4737 85.3068C75.672 86.217 74.5005 86.7143 73.2887 86.6588L65.9169 86.3207C64.1408 86.2392 62.5241 87.3399 61.9488 89.0222L56.1199 106.068C54.7539 110.063 48.9342 109.492 48.3708 105.308L40.6922 48.2865C40.1243 44.0691 34.2374 43.5377 32.9235 47.5852L26.2638 68.0992C26.13 68.5112 25.9303 68.8988 25.6722 69.2467L13.7759 85.2893L2.09781 104.177C1.70701 104.809 1.5 105.537 1.5 106.28V136.5C1.5 138.709 3.29086 140.5 5.5 140.5H13.7759H26.0618H38.3478H50.6337H62.9196H75.2055H87.4914H99.7773H112.063H124.349H136.635H148.921H161.207H173.493H185.779H198.065H210.351H222.637H234.922H247.208H259.494H271.78H284.066H296.352H308.638H320.924H333.21H345.496H357.782H370.068H382.353H394.639H406.925H419.211H431.497H443.783H456.069H468.355H480.641H492.927H505.213H517.499H529.784H542.07H554.356H566.642H578.928H591.214H599.5C601.709 140.5 603.5 138.709 603.5 136.5V64.3323Z" fill="url(#paint0_linear_15_2740)"/>
<path d="M603.5 58.8927L592.775 62.242C591.774 62.5543 590.937 63.2468 590.442 64.1704L579.186 85.1681C579.015 85.4879 578.888 85.8295 578.809 86.1835L570.87 121.628C569.92 125.866 563.846 125.766 563.036 121.499L555.317 80.8238C554.83 78.2577 552.055 76.8391 549.69 77.9478L544.212 80.5156C542.891 81.1349 541.338 80.9858 540.159 80.1266L534.531 76.0259C532.252 74.3649 529.015 75.5213 528.304 78.2506L520.549 108.032C519.578 111.762 514.411 112.095 512.969 108.521L505.213 89.302L492.927 42.0299L485.678 17.5271C484.468 13.4368 478.551 13.8282 477.891 18.0423L468.355 78.8661L459.854 109.627C458.778 113.521 453.266 113.547 452.153 109.664L445.358 85.9555C444.593 83.2858 441.406 82.1892 439.16 83.8225L433.381 88.0252C432.216 88.8718 430.687 89.0275 429.376 88.433L419.211 83.8232L409.857 78.4344C408.165 77.4593 406.016 77.8493 404.774 79.3568L394.639 91.6568L388.328 101.5C386.307 104.651 381.452 103.548 380.991 99.833L372.308 29.8295C371.781 25.5734 365.833 25.0195 364.529 29.1049L357.782 50.2302L347.444 107.711C346.783 111.388 341.888 112.232 340.034 108.988L336.46 102.733C334.976 100.135 331.268 100.027 329.635 102.535L321.873 114.457C321.268 115.387 320.303 116.023 319.21 116.215L312.257 117.429C310.21 117.787 308.231 116.518 307.701 114.51L300.453 87.0444C299.39 83.0136 293.64 83.0947 292.691 87.1539L284.298 123.035C284.146 123.685 283.834 124.286 283.39 124.784L276.645 132.358C274.542 134.72 270.66 133.822 269.807 130.777L261.397 100.759C260.559 97.7678 256.78 96.8316 254.642 99.0855L248.803 105.244C247.817 106.283 246.349 106.716 244.957 106.378L236.91 104.425C235.662 104.123 234.635 103.239 234.15 102.049L226.859 84.178C225.44 80.7003 220.444 80.9188 219.334 84.5071L215.619 96.518C214.358 100.597 208.439 100.127 207.838 95.8998L201.979 54.7421C201.328 50.1679 194.727 50.1572 194.061 54.7293L187.879 97.1762C187.292 101.2 181.773 101.884 180.223 98.1251L176.406 88.8739C175.175 85.8904 171.099 85.518 169.348 88.2291L161.738 100.011C161.389 100.551 160.915 100.999 160.356 101.317L153.19 105.392C150.987 106.645 148.189 105.559 147.408 103.148L137.924 73.867C137.222 71.6985 134.852 70.5544 132.717 71.3531L125.471 74.0637C124.739 74.3375 124.104 74.8197 123.643 75.4507L112.392 90.852C112.174 91.151 111.998 91.4788 111.87 91.8262L104.364 112.158C102.993 115.873 97.6341 115.549 96.7199 111.696L89.2758 80.3189C88.5267 77.1612 84.5271 76.1631 82.3822 78.5984L76.4737 85.3068C75.672 86.217 74.5005 86.7143 73.2887 86.6588L65.9169 86.3207C64.1408 86.2392 62.5241 87.3399 61.9488 89.0222L56.1199 106.068C54.7539 110.063 48.9342 109.492 48.3708 105.308L40.6922 48.2865C40.1243 44.0691 34.2374 43.5377 32.9234 47.5852L26.2638 68.0992C26.13 68.5112 25.9303 68.8988 25.6722 69.2467L13.7759 85.2893L1.5 105.143" stroke="#7492FF" stroke-width="2" stroke-linecap="round" stroke-linejoin="round"/>
<defs>
<linearGradient id="paint0_linear_15_2740" x1="302.5" y1="0.5" x2="302.5" y2="0.5" gradientUnits="userSpaceOnUse">
<stop stop-color="#60AFFF" stop-opacity="0.4"/>
<stop offset="1" stop-color="#60AFFF" stop-opacity="0"/>
</linearGradient>
</defs>
</svg>
