<svg width="28" height="28" viewBox="0 0 28 28" fill="none" xmlns="http://www.w3.org/2000/svg">
<path opacity="0.6" d="M19.0027 22.784L1.0627 10.409C-0.755304 9.155 -0.137304 6.54398 2.1297 5.92998L21.1967 0.754978C21.6006 0.609238 22.0334 0.561928 22.4593 0.616978C22.8851 0.672028 23.2917 0.827848 23.6453 1.07151C23.9988 1.31517 24.2892 1.63964 24.4922 2.01799C24.6952 2.39634 24.8051 2.81766 24.8127 3.24698L23.6827 20.796C23.5487 22.879 20.8207 24.038 19.0027 22.784Z" fill="#3A6FF8"/>
<path opacity="0.4" d="M13.3125 25.839L2.74343 5.17003C2.50183 4.69719 2.39552 4.1668 2.43621 3.63737C2.4769 3.10794 2.66302 2.60003 2.97403 2.16966C3.28505 1.73929 3.70888 1.40317 4.19879 1.19837C4.6887 0.993574 5.22565 0.928054 5.75043 1.00904L25.3375 4.03203C25.7884 4.10164 26.2164 4.27729 26.5863 4.54454C26.9561 4.8118 27.2572 5.16302 27.4649 5.56933C27.6725 5.97564 27.7808 6.42543 27.7807 6.88173C27.7806 7.33802 27.6722 7.78779 27.4645 8.19403L18.4415 25.84C18.1992 26.3115 17.8316 26.7071 17.3791 26.9832C16.9266 27.2594 16.4068 27.4054 15.8767 27.4053C15.3466 27.4052 14.8268 27.259 14.3744 26.9827C13.922 26.7063 13.5546 26.3106 13.3125 25.839Z" fill="#3A6FF8"/>
<path d="M24.7647 3.943L15.0007 2.436L3.0127 5.691L7.7977 15.052L19.0027 22.784C19.2499 22.9527 19.5218 23.0819 19.8087 23.167L24.0647 14.844L24.7647 3.943Z" fill="#3A6FF8"/>
</svg>
