<svg width="28" height="28" viewBox="0 0 28 28" fill="none" xmlns="http://www.w3.org/2000/svg">
<path opacity="0.6" d="M19.0027 22.784L1.0627 10.409C-0.755304 9.15503 -0.137304 6.54401 2.1297 5.93001L21.1967 0.755008C21.6006 0.609268 22.0334 0.561958 22.4593 0.617008C22.8851 0.672058 23.2917 0.827878 23.6453 1.07154C23.9988 1.3152 24.2892 1.63967 24.4922 2.01802C24.6952 2.39637 24.8051 2.81769 24.8127 3.24701L23.6827 20.796C23.5487 22.879 20.8207 24.038 19.0027 22.784Z" fill="#3A6FF8"/>
<path opacity="0.4" d="M13.3125 25.839L2.74343 5.17006C2.50183 4.69722 2.39552 4.16683 2.43621 3.6374C2.4769 3.10797 2.66302 2.60006 2.97403 2.16969C3.28505 1.73932 3.70888 1.4032 4.19879 1.1984C4.6887 0.993604 5.22565 0.928084 5.75043 1.00907L25.3375 4.03206C25.7884 4.10167 26.2164 4.27732 26.5863 4.54457C26.9561 4.81183 27.2572 5.16305 27.4649 5.56936C27.6725 5.97567 27.7808 6.42546 27.7807 6.88176C27.7806 7.33805 27.6722 7.78782 27.4645 8.19406L18.4415 25.84C18.1992 26.3115 17.8316 26.7071 17.3791 26.9832C16.9266 27.2594 16.4068 27.4054 15.8767 27.4053C15.3466 27.4052 14.8268 27.259 14.3744 26.9827C13.922 26.7063 13.5546 26.3106 13.3125 25.839Z" fill="#3A6FF8"/>
<path d="M24.7647 3.94304L15.0007 2.43604L3.0127 5.69104L7.7977 15.052L19.0027 22.784C19.2499 22.9527 19.5218 23.0819 19.8087 23.167L24.0647 14.844L24.7647 3.94304Z" fill="#3A6FF8"/>
</svg>
