<svg width="17" height="17" viewBox="0 0 17 17" fill="none" xmlns="http://www.w3.org/2000/svg">
<path fill-rule="evenodd" clip-rule="evenodd" d="M15.8676 15.2352L12.223 11.5899C13.2006 10.4658 13.7926 8.99909 13.7926 7.39598C13.7926 3.86713 10.9226 1 7.39784 1C3.86957 1 1.00293 3.87048 1.00293 7.39598C1.00293 10.9215 3.87289 13.7918 7.39784 13.7918C9.00064 13.7918 10.4672 13.1997 11.5911 12.2217L15.2358 15.8672C15.3222 15.9535 15.4386 16 15.5517 16C15.6648 16 15.7811 15.9568 15.8676 15.8672C16.0406 15.6942 16.0406 15.4081 15.8676 15.2352ZM1.89764 7.39598C1.89764 4.36275 4.36502 1.89805 7.39439 1.89805C10.4273 1.89805 12.8914 4.36612 12.8914 7.39598C12.8914 10.426 10.4273 12.8971 7.39439 12.8971C4.36502 12.8971 1.89764 10.4292 1.89764 7.39598Z" fill="white"/>
<path d="M15.8676 15.2352L16.2212 14.8816L16.2212 14.8816L15.8676 15.2352ZM12.223 11.5899L11.8457 11.2618L11.5397 11.6137L11.8694 11.9434L12.223 11.5899ZM11.5911 12.2217L11.9447 11.8682L11.6149 11.5383L11.2629 11.8446L11.5911 12.2217ZM15.2358 15.8672L14.8822 16.2207L14.8825 16.221L15.2358 15.8672ZM15.8676 15.8672L15.514 15.5136L15.5077 15.5201L15.8676 15.8672ZM16.2212 14.8816L12.5766 11.2364L11.8694 11.9434L15.514 15.5887L16.2212 14.8816ZM12.6003 11.918C13.6538 10.7067 14.2926 9.12453 14.2926 7.39598H13.2926C13.2926 8.87365 12.7474 10.225 11.8457 11.2618L12.6003 11.918ZM14.2926 7.39598C14.2926 3.5909 11.1987 0.5 7.39784 0.5V1.5C10.6466 1.5 13.2926 4.14335 13.2926 7.39598H14.2926ZM7.39784 0.5C3.59318 0.5 0.50293 3.59459 0.50293 7.39598H1.50293C1.50293 4.14637 4.14596 1.5 7.39784 1.5V0.5ZM0.50293 7.39598C0.50293 11.1975 3.59669 14.2918 7.39784 14.2918V13.2918C4.1491 13.2918 1.50293 10.6454 1.50293 7.39598H0.50293ZM7.39784 14.2918C9.12612 14.2918 10.7081 13.6529 11.9194 12.5989L11.2629 11.8446C10.2263 12.7466 8.87517 13.2918 7.39784 13.2918V14.2918ZM11.2376 12.5753L14.8822 16.2207L15.5894 15.5136L11.9447 11.8682L11.2376 12.5753ZM14.8825 16.221C15.0622 16.4004 15.3054 16.5 15.5517 16.5V15.5C15.5632 15.5 15.5708 15.5022 15.5753 15.5041C15.5802 15.5061 15.5848 15.5091 15.589 15.5133L14.8825 16.221ZM15.5517 16.5C15.7894 16.5 16.0394 16.4094 16.2276 16.2142L15.5077 15.5201C15.5229 15.5043 15.5402 15.5 15.5517 15.5V16.5ZM16.2212 16.2207C16.5894 15.8524 16.5894 15.2499 16.2212 14.8816L15.514 15.5887C15.5013 15.5759 15.4973 15.5611 15.4973 15.5512C15.4973 15.5413 15.5013 15.5264 15.514 15.5136L16.2212 16.2207ZM2.39764 7.39598C2.39764 4.63898 4.64107 2.39805 7.39439 2.39805V1.39805C4.08897 1.39805 1.39764 4.08652 1.39764 7.39598H2.39764ZM7.39439 2.39805C10.1509 2.39805 12.3914 4.64197 12.3914 7.39598H13.3914C13.3914 4.09028 10.7038 1.39805 7.39439 1.39805V2.39805ZM12.3914 7.39598C12.3914 10.1505 10.1505 12.3971 7.39439 12.3971V13.3971C10.7041 13.3971 13.3914 10.7015 13.3914 7.39598H12.3914ZM7.39439 12.3971C4.64145 12.3971 2.39764 10.1533 2.39764 7.39598H1.39764C1.39764 10.705 4.08859 13.3971 7.39439 13.3971V12.3971Z" fill="white"/>
</svg>
