<svg width="40" height="40" viewBox="0 0 40 40" fill="none" xmlns="http://www.w3.org/2000/svg">
<rect width="40" height="40" rx="8" fill="#FAFAFA"/>
<path d="M20.0199 28.5299C17.6899 28.5299 15.3599 28.1599 13.1499 27.4199C12.3099 27.1299 11.6699 26.5399 11.3899 25.7699C11.0999 24.9999 11.1999 24.1499 11.6599 23.3899L12.8099 21.4799C13.0499 21.0799 13.2699 20.2799 13.2699 19.8099V16.9199C13.2699 13.1999 16.2999 10.1699 20.0199 10.1699C23.7399 10.1699 26.7699 13.1999 26.7699 16.9199V19.8099C26.7699 20.2699 26.9899 21.0799 27.2299 21.4899L28.3699 23.3899C28.7999 24.1099 28.8799 24.9799 28.5899 25.7699C28.2999 26.5599 27.6699 27.1599 26.8799 27.4199C24.6799 28.1599 22.3499 28.5299 20.0199 28.5299ZM20.0199 11.6699C17.1299 11.6699 14.7699 14.0199 14.7699 16.9199V19.8099C14.7699 20.5399 14.4699 21.6199 14.0999 22.2499L12.9499 24.1599C12.7299 24.5299 12.6699 24.9199 12.7999 25.2499C12.9199 25.5899 13.2199 25.8499 13.6299 25.9899C17.8099 27.3899 22.2399 27.3899 26.4199 25.9899C26.7799 25.8699 27.0599 25.5999 27.1899 25.2399C27.3199 24.8799 27.2899 24.4899 27.0899 24.1599L25.9399 22.2499C25.5599 21.5999 25.2699 20.5299 25.2699 19.7999V16.9199C25.2699 14.0199 22.9199 11.6699 20.0199 11.6699Z" fill="#676767"/>
<path d="M21.8796 11.9399C21.8096 11.9399 21.7396 11.9299 21.6696 11.9099C21.3796 11.8299 21.0996 11.7699 20.8296 11.7299C19.9796 11.6199 19.1596 11.6799 18.3896 11.9099C18.1096 11.9999 17.8096 11.9099 17.6196 11.6999C17.4296 11.4899 17.3696 11.1899 17.4796 10.9199C17.8896 9.86993 18.8896 9.17993 20.0296 9.17993C21.1696 9.17993 22.1696 9.85993 22.5796 10.9199C22.6796 11.1899 22.6296 11.4899 22.4396 11.6999C22.2896 11.8599 22.0796 11.9399 21.8796 11.9399Z" fill="#676767"/>
<path d="M20.0195 30.8101C19.0295 30.8101 18.0695 30.4101 17.3695 29.7101C16.6695 29.0101 16.2695 28.0501 16.2695 27.0601H17.7695C17.7695 27.6501 18.0095 28.2301 18.4295 28.6501C18.8495 29.0701 19.4295 29.3101 20.0195 29.3101C21.2595 29.3101 22.2695 28.3001 22.2695 27.0601H23.7695C23.7695 29.1301 22.0895 30.8101 20.0195 30.8101Z" fill="#676767"/>
<circle cx="26.5" cy="12.5" r="4" fill="#F3802D" stroke="white"/>
</svg>
