<svg width="25" height="24" viewBox="0 0 25 24" fill="none" xmlns="http://www.w3.org/2000/svg">
<path d="M20.5503 11.25H16.5103C14.5003 11.25 13.5303 10.36 13.5303 8.52V3.98C13.5303 2.14 14.5103 1.25 16.5103 1.25H20.5503C22.5603 1.25 23.5303 2.14 23.5303 3.98V8.51C23.5303 10.36 22.5503 11.25 20.5503 11.25ZM16.5103 2.75C15.1703 2.75 15.0303 3.13 15.0303 3.98V8.51C15.0303 9.37 15.1703 9.74 16.5103 9.74H20.5503C21.8903 9.74 22.0303 9.36 22.0303 8.51V3.98C22.0303 3.12 21.8903 2.75 20.5503 2.75H16.5103Z" fill="#3A6FF8"/>
<path d="M20.5503 22.75H16.5103C14.5003 22.75 13.5303 21.77 13.5303 19.77V15.73C13.5303 13.72 14.5103 12.75 16.5103 12.75H20.5503C22.5603 12.75 23.5303 13.73 23.5303 15.73V19.77C23.5303 21.77 22.5503 22.75 20.5503 22.75ZM16.5103 14.25C15.3303 14.25 15.0303 14.55 15.0303 15.73V19.77C15.0303 20.95 15.3303 21.25 16.5103 21.25H20.5503C21.7303 21.25 22.0303 20.95 22.0303 19.77V15.73C22.0303 14.55 21.7303 14.25 20.5503 14.25H16.5103Z" fill="#3A6FF8"/>
<path d="M9.05027 11.25H5.01027C3.00027 11.25 2.03027 10.36 2.03027 8.52V3.98C2.03027 2.14 3.01027 1.25 5.01027 1.25H9.05027C11.0603 1.25 12.0303 2.14 12.0303 3.98V8.51C12.0303 10.36 11.0503 11.25 9.05027 11.25ZM5.01027 2.75C3.67027 2.75 3.53027 3.13 3.53027 3.98V8.51C3.53027 9.37 3.67027 9.74 5.01027 9.74H9.05027C10.3903 9.74 10.5303 9.36 10.5303 8.51V3.98C10.5303 3.12 10.3903 2.75 9.05027 2.75H5.01027Z" fill="#3A6FF8"/>
<path d="M9.05027 22.75H5.01027C3.00027 22.75 2.03027 21.77 2.03027 19.77V15.73C2.03027 13.72 3.01027 12.75 5.01027 12.75H9.05027C11.0603 12.75 12.0303 13.73 12.0303 15.73V19.77C12.0303 21.77 11.0503 22.75 9.05027 22.75ZM5.01027 14.25C3.83027 14.25 3.53027 14.55 3.53027 15.73V19.77C3.53027 20.95 3.83027 21.25 5.01027 21.25H9.05027C10.2303 21.25 10.5303 20.95 10.5303 19.77V15.73C10.5303 14.55 10.2303 14.25 9.05027 14.25H5.01027Z" fill="#3A6FF8"/>
</svg>
