<svg width="25" height="24" viewBox="0 0 25 24" fill="none" xmlns="http://www.w3.org/2000/svg">
<path d="M22.7803 9.25H2.78027C2.37027 9.25 2.03027 8.91 2.03027 8.5C2.03027 8.09 2.37027 7.75 2.78027 7.75H22.7803C23.1903 7.75 23.5303 8.09 23.5303 8.5C23.5303 8.91 23.1903 9.25 22.7803 9.25Z" fill="#B0B0B0"/>
<path d="M8.78027 17.25H6.78027C6.37027 17.25 6.03027 16.91 6.03027 16.5C6.03027 16.09 6.37027 15.75 6.78027 15.75H8.78027C9.19027 15.75 9.53027 16.09 9.53027 16.5C9.53027 16.91 9.19027 17.25 8.78027 17.25Z" fill="#B0B0B0"/>
<path d="M15.2803 17.25H11.2803C10.8703 17.25 10.5303 16.91 10.5303 16.5C10.5303 16.09 10.8703 15.75 11.2803 15.75H15.2803C15.6903 15.75 16.0303 16.09 16.0303 16.5C16.0303 16.91 15.6903 17.25 15.2803 17.25Z" fill="#B0B0B0"/>
<path d="M18.3403 21.25H7.22027C3.24027 21.25 2.03027 20.05 2.03027 16.11V7.89C2.03027 3.95 3.24027 2.75 7.22027 2.75H18.3303C22.3103 2.75 23.5203 3.95 23.5203 7.89V16.1C23.5303 20.05 22.3203 21.25 18.3403 21.25ZM7.22027 4.25C4.08027 4.25 3.53027 4.79 3.53027 7.89V16.1C3.53027 19.2 4.08027 19.74 7.22027 19.74H18.3303C21.4703 19.74 22.0203 19.2 22.0203 16.1V7.89C22.0203 4.79 21.4703 4.25 18.3303 4.25H7.22027Z" fill="#B0B0B0"/>
</svg>
