<svg width="40" height="40" viewBox="0 0 40 40" fill="none" xmlns="http://www.w3.org/2000/svg">
<rect width="40" height="40" rx="8" fill="#FAFAFA"/>
<path d="M20.0199 28.53C17.6899 28.53 15.3599 28.16 13.1499 27.42C12.3099 27.13 11.6699 26.54 11.3899 25.77C11.0999 25 11.1999 24.15 11.6599 23.39L12.8099 21.48C13.0499 21.08 13.2699 20.28 13.2699 19.81V16.92C13.2699 13.2 16.2999 10.17 20.0199 10.17C23.7399 10.17 26.7699 13.2 26.7699 16.92V19.81C26.7699 20.27 26.9899 21.08 27.2299 21.49L28.3699 23.39C28.7999 24.11 28.8799 24.98 28.5899 25.77C28.2999 26.56 27.6699 27.16 26.8799 27.42C24.6799 28.16 22.3499 28.53 20.0199 28.53ZM20.0199 11.67C17.1299 11.67 14.7699 14.02 14.7699 16.92V19.81C14.7699 20.54 14.4699 21.62 14.0999 22.25L12.9499 24.16C12.7299 24.53 12.6699 24.92 12.7999 25.25C12.9199 25.59 13.2199 25.85 13.6299 25.99C17.8099 27.39 22.2399 27.39 26.4199 25.99C26.7799 25.87 27.0599 25.6 27.1899 25.24C27.3199 24.88 27.2899 24.49 27.0899 24.16L25.9399 22.25C25.5599 21.6 25.2699 20.53 25.2699 19.8V16.92C25.2699 14.02 22.9199 11.67 20.0199 11.67Z" fill="#676767"/>
<path d="M21.8796 11.94C21.8096 11.94 21.7396 11.93 21.6696 11.91C21.3796 11.83 21.0996 11.77 20.8296 11.73C19.9796 11.62 19.1596 11.68 18.3896 11.91C18.1096 12 17.8096 11.91 17.6196 11.7C17.4296 11.49 17.3696 11.19 17.4796 10.92C17.8896 9.87 18.8896 9.18 20.0296 9.18C21.1696 9.18 22.1696 9.86 22.5796 10.92C22.6796 11.19 22.6296 11.49 22.4396 11.7C22.2896 11.86 22.0796 11.94 21.8796 11.94Z" fill="#676767"/>
<path d="M20.0195 30.81C19.0295 30.81 18.0695 30.41 17.3695 29.71C16.6695 29.01 16.2695 28.05 16.2695 27.06H17.7695C17.7695 27.65 18.0095 28.23 18.4295 28.65C18.8495 29.07 19.4295 29.31 20.0195 29.31C21.2595 29.31 22.2695 28.3 22.2695 27.06H23.7695C23.7695 29.13 22.0895 30.81 20.0195 30.81Z" fill="#676767"/>
<circle cx="26.5" cy="12.5" r="4" fill="#F3802D" stroke="white"/>
</svg>
