<svg width="25" height="24" viewBox="0 0 25 24" fill="none" xmlns="http://www.w3.org/2000/svg">
<path d="M15.7803 22.75H9.78027C4.35027 22.75 2.03027 20.43 2.03027 15V9C2.03027 3.57 4.35027 1.25 9.78027 1.25H15.7803C21.2103 1.25 23.5303 3.57 23.5303 9V15C23.5303 20.43 21.2103 22.75 15.7803 22.75ZM9.78027 2.75C5.17027 2.75 3.53027 4.39 3.53027 9V15C3.53027 19.61 5.17027 21.25 9.78027 21.25H15.7803C20.3903 21.25 22.0303 19.61 22.0303 15V9C22.0303 4.39 20.3903 2.75 15.7803 2.75H9.78027Z" fill="#B0B0B0"/>
<path d="M8.11039 15.24C7.95039 15.24 7.79039 15.19 7.65039 15.08C7.32039 14.83 7.26039 14.36 7.51039 14.03L9.89039 10.94C10.1804 10.57 10.5904 10.33 11.0604 10.27C11.5204 10.21 11.9904 10.34 12.3604 10.63L14.1904 12.07C14.2604 12.13 14.3304 12.13 14.3804 12.12C14.4204 12.12 14.4904 12.1 14.5504 12.02L16.8604 9.04001C17.1104 8.71001 17.5904 8.65001 17.9104 8.91001C18.2404 9.16001 18.3004 9.63001 18.0404 9.96001L15.7304 12.94C15.4404 13.31 15.0304 13.55 14.5604 13.6C14.0904 13.66 13.6304 13.53 13.2604 13.24L11.4304 11.8C11.3604 11.74 11.2804 11.74 11.2404 11.75C11.2004 11.75 11.1304 11.77 11.0704 11.85L8.69039 14.94C8.56039 15.14 8.34039 15.24 8.11039 15.24Z" fill="#B0B0B0"/>
</svg>
