<svg width="25" height="24" viewBox="0 0 25 24" fill="none" xmlns="http://www.w3.org/2000/svg">
<path d="M16.5603 2H9.00027C5.22027 2 4.28027 3.01 4.28027 7.04V18.3C4.28027 20.96 5.74027 21.59 7.51027 19.69L7.52027 19.68C8.34027 18.81 9.59027 18.88 10.3003 19.83L11.3103 21.18C12.1203 22.25 13.4303 22.25 14.2403 21.18L15.2503 19.83C15.9703 18.87 17.2203 18.8 18.0403 19.68C19.8203 21.58 21.2703 20.95 21.2703 18.29V7.04C21.2803 3.01 20.3403 2 16.5603 2ZM15.5303 10.75H10.0303C9.62027 10.75 9.28027 10.41 9.28027 10C9.28027 9.59 9.62027 9.25 10.0303 9.25H15.5303C15.9403 9.25 16.2803 9.59 16.2803 10C16.2803 10.41 15.9403 10.75 15.5303 10.75Z" fill="#B0B0B0"/>
</svg>
