<svg width="19" height="22" viewBox="0 0 19 22" fill="none" xmlns="http://www.w3.org/2000/svg">
<path d="M17.9508 5.54244C18.102 5.40092 18.1875 5.20492 18.1875 5C18.1875 4.79508 18.102 4.59908 17.9508 4.45756L13.6769 0.457564C13.3713 0.171514 12.887 0.182481 12.5952 0.482061C12.3033 0.781641 12.3145 1.25639 12.6201 1.54244L15.5131 4.25L1.09914 4.25C0.676555 4.25 0.333984 4.58579 0.333984 5C0.333984 5.41422 0.676555 5.75 1.09914 5.75L15.5131 5.75L12.6201 8.45756C12.3145 8.74362 12.3033 9.21836 12.5952 9.51794C12.887 9.81752 13.3713 9.82849 13.6769 9.54244L17.9508 5.54244Z" fill="#4F86FF"/>
<path d="M0.570732 17.5424C0.419528 17.4009 0.333984 17.2049 0.333984 17C0.333984 16.7951 0.419528 16.5991 0.570732 16.4576L4.84455 12.4576C5.15018 12.1715 5.63452 12.1825 5.92635 12.4821C6.21818 12.7816 6.20699 13.2564 5.90136 13.5424L3.00845 16.25L17.4224 16.25C17.8449 16.25 18.1875 16.5858 18.1875 17C18.1875 17.4142 17.8449 17.75 17.4224 17.75L3.00845 17.75L5.90136 20.4576C6.20699 20.7436 6.21818 21.2184 5.92635 21.5179C5.63452 21.8175 5.15018 21.8285 4.84455 21.5424L0.570732 17.5424Z" fill="#4F86FF"/>
</svg>
